# This file uses millimeters as units for non-parametric coordinates.

mtllib coins_mesh.mtl
g default
v 1.037045 -0.112350 -0.429558
v 0.793720 -0.112350 -0.793720
v 0.429559 -0.112350 -1.037045
v 0.000001 -0.112350 -1.122490
v -0.429558 -0.112350 -1.037045
v -0.793720 -0.112350 -0.793720
v -1.037045 -0.112350 -0.429559
v -1.122490 -0.112350 -0.000000
v -1.037045 -0.112350 0.429558
v -0.793720 -0.112350 0.793720
v -0.429558 -0.112350 1.037045
v -0.000000 -0.112350 1.122490
v 0.429558 -0.112350 1.037045
v 0.793720 -0.112350 0.793720
v 1.037045 -0.112350 0.429558
v 1.122490 -0.112350 0.000000
v 1.037045 0.112350 -0.429558
v 0.793720 0.112350 -0.793720
v 0.429559 0.112350 -1.037045
v 0.000001 0.112350 -1.122490
v -0.429558 0.112350 -1.037045
v -0.793720 0.112350 -0.793720
v -1.037045 0.112350 -0.429559
v -1.122490 0.112350 -0.000000
v -1.037045 0.112350 0.429558
v -0.793720 0.112350 0.793720
v -0.429558 0.112350 1.037045
v -0.000000 0.112350 1.122490
v 0.429558 0.112350 1.037045
v 0.793720 0.112350 0.793720
v 1.037045 0.112350 0.429558
v 1.122490 0.112350 0.000000
v 0.000000 -0.112350 0.000000
v 0.000000 0.112350 0.000000
v 0.985193 -0.112350 -0.408080
v 0.754034 -0.112350 -0.754034
v 0.408081 -0.112350 -0.985193
v 0.000001 -0.112350 -1.066365
v -0.408080 -0.112350 -0.985193
v -0.754034 -0.112350 -0.754034
v -0.985193 -0.112350 -0.408081
v -1.066365 -0.112350 -0.000000
v -0.985193 -0.112350 0.408080
v -0.754034 -0.112350 0.754034
v -0.408081 -0.112350 0.985193
v -0.000000 -0.112350 1.066365
v 0.408080 -0.112350 0.985193
v 0.754034 -0.112350 0.754034
v 0.985193 -0.112350 0.408080
v 1.066365 -0.112350 0.000000
v 0.985193 0.112350 -0.408080
v 0.754034 0.112350 -0.754034
v 0.408081 0.112350 -0.985193
v 0.000001 0.112350 -1.066365
v -0.408080 0.112350 -0.985193
v -0.754034 0.112350 -0.754034
v -0.985193 0.112350 -0.408081
v -1.066365 0.112350 -0.000000
v -0.985193 0.112350 0.408080
v -0.754034 0.112350 0.754034
v -0.408081 0.112350 0.985193
v -0.000000 0.112350 1.066365
v 0.408080 0.112350 0.985193
v 0.754034 0.112350 0.754034
v 0.985193 0.112350 0.408080
v 1.066365 0.112350 0.000000
v 1.037045 0.064254 -0.429558
v 0.793720 0.064254 -0.793720
v 0.429559 0.064254 -1.037045
v 0.000001 0.064254 -1.122490
v -0.429558 0.064254 -1.037045
v -0.793720 0.064254 -0.793720
v -1.037045 0.064254 -0.429559
v -1.122490 0.064254 -0.000000
v -1.037045 0.064254 0.429558
v -0.793720 0.064254 0.793720
v -0.429558 0.064254 1.037045
v -0.000000 0.064254 1.122490
v 0.429558 0.064254 1.037045
v 0.793720 0.064254 0.793720
v 1.037045 0.064254 0.429558
v 1.122490 0.064254 0.000000
v 1.037045 -0.069247 -0.429558
v 0.793720 -0.069247 -0.793720
v 0.429559 -0.069247 -1.037045
v 0.000001 -0.069247 -1.122490
v -0.429558 -0.069247 -1.037045
v -0.793720 -0.069247 -0.793720
v -1.037045 -0.069247 -0.429559
v -1.122490 -0.069247 -0.000000
v -1.037045 -0.069247 0.429558
v -0.793720 -0.069247 0.793720
v -0.429558 -0.069247 1.037045
v -0.000000 -0.069247 1.122490
v 0.429558 -0.069247 1.037045
v 0.793720 -0.069247 0.793720
v 1.037045 -0.069247 0.429558
v 1.122490 -0.069247 0.000000
vt 0.644356 0.096456
vt 0.610485 0.045765
vt 0.559794 0.011894
vt 0.500000 0.000000
vt 0.440206 0.011894
vt 0.389515 0.045765
vt 0.355644 0.096456
vt 0.343750 0.156250
vt 0.355644 0.216044
vt 0.389515 0.266735
vt 0.440206 0.300606
vt 0.500000 0.312500
vt 0.559794 0.300606
vt 0.610485 0.266735
vt 0.644356 0.216044
vt 0.656250 0.156250
vt 0.375000 0.312500
vt 0.390625 0.312500
vt 0.406250 0.312500
vt 0.421875 0.312500
vt 0.437500 0.312500
vt 0.453125 0.312500
vt 0.468750 0.312500
vt 0.484375 0.312500
vt 0.500000 0.312500
vt 0.515625 0.312500
vt 0.531250 0.312500
vt 0.546875 0.312500
vt 0.562500 0.312500
vt 0.578125 0.312500
vt 0.593750 0.312500
vt 0.609375 0.312500
vt 0.625000 0.312500
vt 0.375000 0.688440
vt 0.390625 0.688440
vt 0.406250 0.688440
vt 0.421875 0.688440
vt 0.437500 0.688440
vt 0.453125 0.688440
vt 0.468750 0.688440
vt 0.484375 0.688440
vt 0.500000 0.688440
vt 0.515625 0.688440
vt 0.531250 0.688440
vt 0.546875 0.688440
vt 0.562500 0.688440
vt 0.578125 0.688440
vt 0.593750 0.688440
vt 0.609375 0.688440
vt 0.625000 0.688440
vt 0.644356 0.783956
vt 0.610485 0.733265
vt 0.559794 0.699394
vt 0.500000 0.687500
vt 0.440206 0.699394
vt 0.389515 0.733265
vt 0.355644 0.783956
vt 0.343750 0.843750
vt 0.355644 0.903544
vt 0.389515 0.954235
vt 0.440206 0.988106
vt 0.500000 1.000000
vt 0.559794 0.988106
vt 0.610485 0.954235
vt 0.644356 0.903544
vt 0.656250 0.843750
vt 0.500000 0.150000
vt 0.500000 0.837500
vt 0.572178 0.123228
vt 0.555243 0.097882
vt 0.529897 0.080947
vt 0.500000 0.075000
vt 0.470103 0.080947
vt 0.444757 0.097882
vt 0.427822 0.123228
vt 0.421875 0.153125
vt 0.427822 0.183022
vt 0.444757 0.208368
vt 0.470103 0.225303
vt 0.500000 0.231250
vt 0.529897 0.225303
vt 0.555243 0.208368
vt 0.572178 0.183022
vt 0.578125 0.153125
vt 0.572178 0.870522
vt 0.555243 0.895868
vt 0.529897 0.912803
vt 0.500000 0.918750
vt 0.470103 0.912803
vt 0.444757 0.895868
vt 0.427822 0.870522
vt 0.421875 0.840625
vt 0.427822 0.810728
vt 0.444757 0.785382
vt 0.470103 0.768447
vt 0.500000 0.762500
vt 0.529897 0.768447
vt 0.555243 0.785382
vt 0.572178 0.810728
vt 0.578125 0.840625
vt 0.625000 0.607971
vt 0.375000 0.607971
vt 0.390625 0.607971
vt 0.406250 0.607971
vt 0.421875 0.607971
vt 0.437500 0.607971
vt 0.453125 0.607971
vt 0.468750 0.607971
vt 0.484375 0.607971
vt 0.500000 0.607971
vt 0.515625 0.607971
vt 0.531250 0.607971
vt 0.546875 0.607971
vt 0.562500 0.607971
vt 0.578125 0.607971
vt 0.593750 0.607971
vt 0.609375 0.607971
vt 0.625000 0.398934
vt 0.375000 0.398934
vt 0.390625 0.398934
vt 0.406250 0.398934
vt 0.421875 0.398934
vt 0.437500 0.398934
vt 0.453125 0.398934
vt 0.468750 0.398934
vt 0.484375 0.398934
vt 0.500000 0.398934
vt 0.515625 0.398934
vt 0.531250 0.398934
vt 0.546875 0.398934
vt 0.562500 0.398934
vt 0.578125 0.398934
vt 0.593750 0.398934
vt 0.609375 0.398934
vn 0.923880 0.000000 -0.382683
vn 0.707107 0.000000 -0.707106
vn 0.707107 0.000000 -0.707106
vn 0.923880 0.000000 -0.382683
vn 0.382684 0.000000 -0.923879
vn 0.382684 0.000000 -0.923879
vn 0.000001 -0.000000 -1.000000
vn 0.000001 0.000000 -1.000000
vn -0.382683 -0.000000 -0.923880
vn -0.382683 0.000000 -0.923880
vn -0.707106 -0.000000 -0.707107
vn -0.707107 0.000000 -0.707107
vn -0.923879 0.000000 -0.382684
vn -0.923879 0.000000 -0.382684
vn -1.000000 -0.000000 -0.000000
vn -1.000000 0.000000 -0.000000
vn -0.923880 -0.000000 0.382683
vn -0.923880 0.000000 0.382683
vn -0.707107 -0.000000 0.707107
vn -0.707107 0.000000 0.707107
vn -0.382684 0.000000 0.923879
vn -0.382684 0.000000 0.923879
vn -0.000000 0.000000 1.000000
vn -0.000000 0.000000 1.000000
vn 0.382683 0.000000 0.923880
vn 0.382683 0.000000 0.923880
vn 0.707107 0.000000 0.707107
vn 0.707107 0.000000 0.707107
vn 0.923880 0.000000 0.382684
vn 0.923879 0.000000 0.382684
vn 1.000000 0.000000 0.000000
vn 1.000000 0.000000 0.000000
vn 0.000000 -1.000000 -0.000000
vn 0.000000 -1.000000 -0.000000
vn 0.000000 -1.000000 0.000000
vn 0.000000 -1.000000 -0.000000
vn 0.000000 -1.000000 -0.000000
vn 0.000000 -1.000000 -0.000000
vn 0.000000 -1.000000 0.000000
vn 0.000000 -1.000000 0.000000
vn 0.000000 -1.000000 0.000000
vn 0.000000 -1.000000 0.000000
vn 0.000000 -1.000000 0.000000
vn 0.000000 -1.000000 0.000000
vn 0.000000 -1.000000 -0.000000
vn 0.000000 -1.000000 0.000000
vn 0.000000 -1.000000 0.000000
vn 0.000000 -1.000000 0.000000
vn 0.000000 -1.000000 -0.000000
vn -0.000000 1.000000 -0.000000
vn -0.000000 1.000000 0.000000
vn -0.000000 1.000000 0.000000
vn -0.000000 1.000000 0.000000
vn 0.000000 1.000000 0.000000
vn 0.000000 1.000000 0.000000
vn 0.000000 1.000000 0.000000
vn 0.000000 1.000000 0.000000
vn 0.000000 1.000000 0.000000
vn 0.000000 1.000000 -0.000000
vn 0.000000 1.000000 -0.000000
vn 0.000000 1.000000 -0.000000
vn -0.000000 1.000000 -0.000000
vn -0.000000 1.000000 -0.000000
vn -0.000000 1.000000 -0.000000
vn -0.000000 1.000000 -0.000000
vn -0.000000 1.000000 0.000000
vn 0.000000 -1.000000 -0.000000
vn 0.000000 -1.000000 -0.000000
vn 0.000000 -1.000000 -0.000000
vn 0.000000 -1.000000 -0.000000
vn 0.000000 -1.000000 -0.000000
vn 0.000000 -1.000000 0.000000
vn 0.000000 -1.000000 -0.000000
vn 0.000000 -1.000000 0.000000
vn 0.000000 -1.000000 0.000000
vn 0.000000 -1.000000 -0.000000
vn 0.000000 -1.000000 -0.000000
vn 0.000000 -1.000000 -0.000000
vn 0.000000 -1.000000 -0.000000
vn 0.000000 -1.000000 -0.000000
vn 0.000000 -1.000000 -0.000000
vn 0.000000 -1.000000 -0.000000
vn 0.000000 1.000000 -0.000000
vn 0.000000 1.000000 0.000000
vn 0.000000 1.000000 -0.000000
vn -0.000000 1.000000 0.000000
vn 0.000000 1.000000 0.000000
vn 0.000000 1.000000 0.000000
vn 0.000000 1.000000 -0.000000
vn 0.000000 1.000000 -0.000000
vn 0.000000 1.000000 0.000000
vn 0.000000 1.000000 0.000000
vn 0.000000 1.000000 -0.000000
vn 0.000000 1.000000 0.000000
vn 0.000000 1.000000 0.000000
vn 0.000000 1.000000 -0.000000
vn 0.000000 1.000000 -0.000000
vn 0.000000 1.000000 -0.000000
vn 0.923880 0.000000 -0.382683
vn 0.707107 0.000000 -0.707106
vn 0.382684 0.000000 -0.923879
vn 0.000001 0.000000 -1.000000
vn -0.382683 0.000000 -0.923880
vn -0.707106 0.000000 -0.707107
vn -0.923880 0.000000 -0.382684
vn -1.000000 0.000000 -0.000000
vn -0.923880 0.000000 0.382683
vn -0.707107 0.000000 0.707106
vn -0.382684 0.000000 0.923879
vn -0.000000 0.000000 1.000000
vn 0.382683 0.000000 0.923880
vn 0.707107 0.000000 0.707107
vn 0.923880 0.000000 0.382684
vn 1.000000 0.000000 0.000000
vn 0.923880 0.000000 -0.382683
vn 0.707107 0.000000 -0.707106
vn 0.382684 0.000000 -0.923879
vn 0.000001 0.000001 -1.000000
vn -0.382683 0.000001 -0.923880
vn -0.707106 0.000001 -0.707107
vn -0.923879 0.000000 -0.382684
vn -1.000000 0.000001 -0.000000
vn -0.923880 0.000002 0.382683
vn -0.707107 0.000001 0.707107
vn -0.382684 0.000000 0.923879
vn -0.000000 0.000000 1.000000
vn 0.382683 0.000000 0.923880
vn 0.707107 0.000000 0.707107
vn 0.923880 0.000000 0.382684
vn 1.000000 0.000000 0.000000
s 1
g coins
usemtl initialShadingGroup
f 67/102/1 68/103/2 18/35/3 17/34/4
f 68/103/2 69/104/5 19/36/6 18/35/3
f 69/104/5 70/105/7 20/37/8 19/36/6
f 70/105/7 71/106/9 21/38/10 20/37/8
f 71/106/9 72/107/11 22/39/12 21/38/10
f 72/107/11 73/108/13 23/40/14 22/39/12
f 73/108/13 74/109/15 24/41/16 23/40/14
f 74/109/15 75/110/17 25/42/18 24/41/16
f 75/110/17 76/111/19 26/43/20 25/42/18
f 76/111/19 77/112/21 27/44/22 26/43/20
f 77/112/21 78/113/23 28/45/24 27/44/22
f 78/113/23 79/114/25 29/46/26 28/45/24
f 79/114/25 80/115/27 30/47/28 29/46/26
f 80/115/27 81/116/29 31/48/30 30/47/28
f 81/116/29 82/117/31 32/49/32 31/48/30
f 82/117/31 67/101/1 17/50/4 32/49/32
s 2
f 37/71/33 36/70/34 33/67/35 38/72/36
f 39/73/37 38/72/36 33/67/35 40/74/38
f 41/75/39 40/74/38 33/67/35 42/76/40
f 43/77/41 42/76/40 33/67/35 44/78/42
f 45/79/43 44/78/42 33/67/35 46/80/44
f 47/81/45 46/80/44 33/67/35 48/82/46
f 49/83/47 48/82/46 33/67/35 50/84/48
f 35/69/49 50/84/48 33/67/35 36/70/34
s 3
f 34/68/50 52/86/51 53/87/52 54/88/53
f 34/68/50 54/88/53 55/89/54 56/90/55
f 34/68/50 56/90/55 57/91/56 58/92/57
f 34/68/50 58/92/57 59/93/58 60/94/59
f 34/68/50 60/94/59 61/95/60 62/96/61
f 34/68/50 62/96/61 63/97/62 64/98/63
f 34/68/50 64/98/63 65/99/64 66/100/65
f 34/68/50 66/100/65 51/85/66 52/86/51
s 2
f 16/16/67 15/15/68 49/83/47 50/84/48
f 15/15/68 14/14/69 48/82/46 49/83/47
f 14/14/69 13/13/70 47/81/45 48/82/46
f 13/13/70 12/12/71 46/80/44 47/81/45
f 12/12/71 11/11/72 45/79/43 46/80/44
f 11/11/72 10/10/73 44/78/42 45/79/43
f 10/10/73 9/9/74 43/77/41 44/78/42
f 9/9/74 8/8/75 42/76/40 43/77/41
f 8/8/75 7/7/76 41/75/39 42/76/40
f 7/7/76 6/6/77 40/74/38 41/75/39
f 6/6/77 5/5/78 39/73/37 40/74/38
f 5/5/78 4/4/79 38/72/36 39/73/37
f 4/4/79 3/3/80 37/71/33 38/72/36
f 3/3/80 2/2/81 36/70/34 37/71/33
f 2/2/81 1/1/82 35/69/49 36/70/34
f 1/1/82 16/16/67 50/84/48 35/69/49
s 3
f 32/66/83 17/65/84 51/85/66 66/100/65
f 17/65/84 18/64/85 52/86/51 51/85/66
f 18/64/85 19/63/86 53/87/52 52/86/51
f 19/63/86 20/62/87 54/88/53 53/87/52
f 20/62/87 21/61/88 55/89/54 54/88/53
f 21/61/88 22/60/89 56/90/55 55/89/54
f 22/60/89 23/59/90 57/91/56 56/90/55
f 23/59/90 24/58/91 58/92/57 57/91/56
f 24/58/91 25/57/92 59/93/58 58/92/57
f 25/57/92 26/56/93 60/94/59 59/93/58
f 26/56/93 27/55/94 61/95/60 60/94/59
f 27/55/94 28/54/95 62/96/61 61/95/60
f 28/54/95 29/53/96 63/97/62 62/96/61
f 29/53/96 30/52/97 64/98/63 63/97/62
f 30/52/97 31/51/98 65/99/64 64/98/63
f 31/51/98 32/66/83 66/100/65 65/99/64
s 1
f 83/119/99 84/120/100 68/103/2 67/102/1
f 84/120/100 85/121/101 69/104/5 68/103/2
f 85/121/101 86/122/102 70/105/7 69/104/5
f 86/122/102 87/123/103 71/106/9 70/105/7
f 87/123/103 88/124/104 72/107/11 71/106/9
f 88/124/104 89/125/105 73/108/13 72/107/11
f 89/125/105 90/126/106 74/109/15 73/108/13
f 90/126/106 91/127/107 75/110/17 74/109/15
f 91/127/107 92/128/108 76/111/19 75/110/17
f 92/128/108 93/129/109 77/112/21 76/111/19
f 93/129/109 94/130/110 78/113/23 77/112/21
f 94/130/110 95/131/111 79/114/25 78/113/23
f 95/131/111 96/132/112 80/115/27 79/114/25
f 96/132/112 97/133/113 81/116/29 80/115/27
f 97/133/113 98/134/114 82/117/31 81/116/29
f 98/134/114 83/118/99 67/101/1 82/117/31
f 1/17/115 2/18/116 84/120/100 83/119/99
f 2/18/116 3/19/117 85/121/101 84/120/100
f 3/19/117 4/20/118 86/122/102 85/121/101
f 4/20/118 5/21/119 87/123/103 86/122/102
f 5/21/119 6/22/120 88/124/104 87/123/103
f 6/22/120 7/23/121 89/125/105 88/124/104
f 7/23/121 8/24/122 90/126/106 89/125/105
f 8/24/122 9/25/123 91/127/107 90/126/106
f 9/25/123 10/26/124 92/128/108 91/127/107
f 10/26/124 11/27/125 93/129/109 92/128/108
f 11/27/125 12/28/126 94/130/110 93/129/109
f 12/28/126 13/29/127 95/131/111 94/130/110
f 13/29/127 14/30/128 96/132/112 95/131/111
f 14/30/128 15/31/129 97/133/113 96/132/112
f 15/31/129 16/32/130 98/134/114 97/133/113
f 16/32/130 1/33/115 83/118/99 98/134/114
