# This file uses meters as units for non-parametric coordinates.

mtllib eyelashes_01.mtl
g default
v 1.613493 75.568411 12.087688
v 1.713054 75.806968 12.182099
v 2.081417 76.166587 12.346828
v 2.658888 76.503873 12.568986
v 3.433527 76.639573 12.568986
v 4.215237 76.552343 12.151701
v 4.720253 76.300400 11.609177
v 1.580090 75.383758 11.753708
v 1.687141 75.710845 11.835916
v 2.005509 76.049437 11.881957
v 2.530495 76.348175 11.886302
v 3.236523 76.510076 11.820990
v 3.900288 76.485367 11.575090
v 4.383842 76.284965 11.162796
v 4.997124 76.109853 11.107199
v 4.628442 76.031952 10.747351
v 5.208571 75.957099 10.737175
v 4.732139 75.788323 10.396696
v 1.585871 75.474821 11.908568
v 1.721167 75.706794 12.000505
v 2.098973 76.054642 12.123742
v 2.589203 76.313103 12.209717
v 3.329536 76.461897 12.177062
v 4.009774 76.391433 11.907176
v 4.535062 76.184042 11.347493
v 4.749930 75.978743 10.870245
v 4.868463 75.861151 10.494658
v -1.613493 75.568411 12.087688
v -1.713053 75.806968 12.182099
v -2.081417 76.166587 12.346828
v -2.658887 76.503873 12.568986
v -3.433526 76.639573 12.568986
v -4.215235 76.552343 12.151701
v -4.720253 76.300400 11.609177
v -1.580089 75.383758 11.753708
v -1.687140 75.710845 11.835916
v -2.005509 76.049437 11.881957
v -2.530494 76.348175 11.886302
v -3.236522 76.510076 11.820990
v -3.900287 76.485367 11.575090
v -4.383842 76.284965 11.162796
v -4.997123 76.109853 11.107199
v -4.628442 76.031952 10.747351
v -5.208571 75.957099 10.737175
v -4.732138 75.788323 10.396696
v -1.585870 75.474821 11.908568
v -1.721166 75.706794 12.000505
v -2.098973 76.054642 12.123742
v -2.589203 76.313103 12.209717
v -3.329536 76.461897 12.177062
v -4.009773 76.391433 11.907176
v -4.535061 76.184042 11.347493
v -4.749929 75.978743 10.870245
v -4.868463 75.861151 10.494658
vt 0.183269 0.068358
vt 0.211707 0.082411
vt 0.179562 0.096194
vt 0.150228 0.075029
vt 0.256077 0.114752
vt 0.206650 0.130148
vt 0.294714 0.154273
vt 0.231232 0.179366
vt 0.318142 0.221353
vt 0.246260 0.245289
vt 0.292592 0.303580
vt 0.223529 0.321456
vt 0.206707 0.400542
vt 0.164175 0.400713
vt 0.124858 0.465288
vt 0.096224 0.464618
vt 0.058643 0.511194
vt 0.033543 0.510790
vt 0.220727 0.059551
vt 0.249309 0.070944
vt 0.300826 0.097614
vt 0.369247 0.131443
vt 0.399474 0.196853
vt 0.349021 0.298082
vt 0.264680 0.390610
vt 0.180856 0.462152
vt 0.119263 0.515861
vt 0.183269 0.068358
vt 0.211707 0.082411
vt 0.179562 0.096194
vt 0.150227 0.075029
vt 0.256077 0.114752
vt 0.206650 0.130148
vt 0.294714 0.154273
vt 0.231232 0.179366
vt 0.318142 0.221353
vt 0.246260 0.245289
vt 0.292592 0.303580
vt 0.223529 0.321456
vt 0.206707 0.400542
vt 0.164175 0.400713
vt 0.124858 0.465288
vt 0.096224 0.464618
vt 0.058643 0.511194
vt 0.033543 0.510790
vt 0.220727 0.059551
vt 0.249310 0.070944
vt 0.300826 0.097614
vt 0.369247 0.131443
vt 0.399474 0.196853
vt 0.349021 0.298082
vt 0.264680 0.390610
vt 0.180856 0.462152
vt 0.119263 0.515861
vn -0.906439 0.420401 -0.040391
vn -0.754345 0.655261 -0.039971
vn -0.815075 0.563815 0.133286
vn -0.918227 0.395999 0.006561
vn -0.518422 0.846130 -0.123705
vn -0.593679 0.779821 0.198554
vn -0.282295 0.942285 -0.180021
vn -0.309305 0.935745 0.169448
vn -0.117808 0.967761 -0.222619
vn 0.000322 0.986296 0.164985
vn 0.031692 0.977713 -0.207541
vn 0.352732 0.927379 0.124695
vn 0.337489 0.940411 -0.041579
vn 0.456444 0.883774 0.102969
vn 0.582648 0.804789 -0.113293
vn 0.031085 0.927976 -0.371342
vn 0.426331 0.881352 -0.203617
vn 0.582648 0.804789 -0.113293
vn 0.248315 0.895475 -0.369411
vn -0.033798 0.929909 -0.366234
vn 0.124725 0.919925 -0.371728
vn 0.248315 0.895475 -0.369411
vn -0.832719 0.505297 -0.226392
vn -0.568428 0.717295 -0.402960
vn -0.386023 0.826389 -0.409961
vn -0.213109 0.890321 -0.402385
vn -0.151005 0.899434 -0.410141
vn -0.096090 0.897850 -0.429689
vn -0.068811 0.896394 -0.437885
vn -0.061458 0.914257 -0.400445
vn -0.061458 0.914257 -0.400445
vn -0.061844 0.929229 -0.364293
vn -0.061844 0.929229 -0.364293
vn 0.906439 0.420402 -0.040393
vn 0.918227 0.396001 0.006558
vn 0.815075 0.563816 0.133285
vn 0.754344 0.655261 -0.039971
vn 0.593679 0.779821 0.198554
vn 0.518422 0.846130 -0.123705
vn 0.309305 0.935744 0.169448
vn 0.282295 0.942285 -0.180021
vn -0.000321 0.986296 0.164985
vn 0.117808 0.967761 -0.222619
vn -0.352732 0.927379 0.124696
vn -0.031692 0.977713 -0.207541
vn -0.456444 0.883774 0.102970
vn -0.337489 0.940411 -0.041579
vn -0.582650 0.804788 -0.113293
vn -0.582650 0.804788 -0.113293
vn -0.426332 0.881351 -0.203618
vn -0.031084 0.927976 -0.371342
vn -0.248315 0.895476 -0.369410
vn -0.248315 0.895476 -0.369410
vn -0.124724 0.919925 -0.371727
vn 0.033798 0.929909 -0.366234
vn 0.832721 0.505295 -0.226390
vn 0.568428 0.717296 -0.402960
vn 0.386023 0.826389 -0.409961
vn 0.213109 0.890321 -0.402385
vn 0.151005 0.899434 -0.410141
vn 0.096090 0.897850 -0.429689
vn 0.068811 0.896394 -0.437885
vn 0.061458 0.914257 -0.400445
vn 0.061458 0.914257 -0.400445
vn 0.061844 0.929228 -0.364294
vn 0.061844 0.929228 -0.364294
s 1
g initialShadingGroup cil_haut_gauche cil_haut
f 19/1/1 20/2/2 9/3/3 8/4/4
f 20/2/2 21/5/5 10/6/6 9/3/3
f 21/5/5 22/7/7 11/8/8 10/6/6
f 22/7/7 23/9/9 12/10/10 11/8/8
f 23/9/9 24/11/11 13/12/12 12/10/10
f 24/11/11 25/13/13 14/14/14 13/12/12
s 2
f 14/14/15 25/13/16 26/15/17 16/16/18
s 3
f 16/16/19 26/15/20 27/17/21 18/18/22
s 1
f 1/19/23 2/20/24 20/2/2 19/1/1
f 2/20/24 3/21/25 21/5/5 20/2/2
f 3/21/25 4/22/26 22/7/7 21/5/5
f 4/22/26 5/23/27 23/9/9 22/7/7
f 5/23/27 6/24/28 24/11/11 23/9/9
f 6/24/28 7/25/29 25/13/13 24/11/11
s 2
f 26/15/17 25/13/16 7/25/30 15/26/31
s 3
f 27/17/21 26/15/20 15/26/32 17/27/33
s 4
f 46/28/34 35/31/35 36/30/36 47/29/37
f 47/29/37 36/30/36 37/33/38 48/32/39
f 48/32/39 37/33/38 38/35/40 49/34/41
f 49/34/41 38/35/40 39/37/42 50/36/43
f 50/36/43 39/37/42 40/39/44 51/38/45
f 51/38/45 40/39/44 41/41/46 52/40/47
s 5
f 41/41/48 43/43/49 53/42/50 52/40/51
s 6
f 43/43/52 45/45/53 54/44/54 53/42/55
s 4
f 28/46/56 46/28/34 47/29/37 29/47/57
f 29/47/57 47/29/37 48/32/39 30/48/58
f 30/48/58 48/32/39 49/34/41 31/49/59
f 31/49/59 49/34/41 50/36/43 32/50/60
f 32/50/60 50/36/43 51/38/45 33/51/61
f 33/51/61 51/38/45 52/40/47 34/52/62
s 5
f 53/42/50 42/53/63 34/52/64 52/40/51
s 6
f 54/44/54 44/54/65 42/53/66 53/42/55
g default
v 1.694330 75.000142 11.593261
v 2.102218 74.797819 11.983194
v 2.707970 74.606060 12.009917
v 3.479540 74.574965 11.878874
v 4.179533 74.742436 11.607413
v 4.714641 75.115066 11.138356
v 5.002411 75.410618 10.830333
v 1.709975 75.032430 11.537058
v 2.100257 74.914913 11.955726
v 2.679348 74.761151 11.972321
v 3.403155 74.730084 11.841285
v 4.088469 74.865440 11.589772
v 4.578853 75.189129 11.107442
v 4.844795 75.542297 10.752021
v 1.709667 75.049292 11.469984
v 2.034370 74.949455 11.726856
v 2.630126 74.826351 11.734734
v 3.326679 74.804936 11.638611
v 4.022422 74.968465 11.419571
v 4.498767 75.303184 10.965095
v 4.674502 75.600316 10.645199
v -1.694330 75.000142 11.593260
v -2.102218 74.797819 11.983193
v -2.707970 74.606060 12.009918
v -3.479540 74.574965 11.878874
v -4.179533 74.742436 11.607413
v -4.714640 75.115066 11.138354
v -5.002409 75.410618 10.830332
v -1.709974 75.032430 11.537058
v -2.100257 74.914913 11.955726
v -2.679348 74.761151 11.972322
v -3.403154 74.730084 11.841285
v -4.088468 74.865440 11.589772
v -4.578851 75.189129 11.107440
v -4.844794 75.542297 10.752021
v -1.709667 75.049292 11.469983
v -2.034369 74.949455 11.726855
v -2.630125 74.826351 11.734734
v -3.326679 74.804936 11.638610
v -4.022422 74.968465 11.419570
v -4.498766 75.303184 10.965093
v -4.674501 75.600316 10.645198
vt 0.700920 0.409267
vt 0.558490 0.524636
vt 0.528938 0.509000
vt 0.675983 0.396839
vt 0.458074 0.595158
vt 0.405537 0.581950
vt 0.461344 0.510823
vt 0.599857 0.401899
vt 0.745194 0.288254
vt 0.711868 0.280479
vt 0.344598 0.566279
vt 0.621035 0.282677
vt 0.723740 0.167436
vt 0.693940 0.168080
vt 0.590802 0.173286
vt 0.653837 0.078130
vt 0.634411 0.086979
vt 0.539951 0.068963
vt 0.468287 0.006886
vt 0.445698 0.007724
vt 0.418611 0.004883
vt 0.468288 0.006886
vt 0.653837 0.078130
vt 0.634411 0.086979
vt 0.445698 0.007724
vt 0.723740 0.167436
vt 0.693940 0.168080
vt 0.745194 0.288254
vt 0.711868 0.280479
vt 0.700920 0.409267
vt 0.675983 0.396839
vt 0.558490 0.524636
vt 0.528938 0.509000
vt 0.458074 0.595158
vt 0.405537 0.581950
vt 0.539951 0.068963
vt 0.418611 0.004883
vt 0.590802 0.173286
vt 0.621035 0.282677
vt 0.599857 0.401899
vt 0.461344 0.510823
vt 0.344598 0.566279
vn -0.541245 0.448112 0.711512
vn -0.077332 0.285590 0.955227
vn 0.051456 0.875525 0.480425
vn 0.083013 0.971095 0.223795
vn 0.140803 0.275410 0.950959
vn 0.135683 0.748587 0.649005
vn 0.226863 0.317039 0.920880
vn 0.133390 0.694083 0.707429
vn 0.294390 0.439847 0.848451
vn 0.151061 0.696605 0.701372
vn 0.273739 0.586798 0.762060
vn 0.099718 0.727747 0.678558
vn 0.163097 0.633938 0.755991
vn -0.048391 0.730013 0.681718
vn 0.200424 0.969430 0.141548
vn 0.173140 0.976169 0.130831
vn 0.161312 0.964476 0.209200
vn 0.021030 0.932087 0.361623
vn -0.019476 0.851993 0.523191
vn -0.093839 0.772531 0.628005
vn -0.123795 0.754000 0.645103
vn 0.541248 0.448105 0.711514
vn -0.063163 0.967822 0.243578
vn 0.007641 0.774638 0.632359
vn 0.097977 0.294440 0.950634
vn -0.171351 0.749911 0.638962
vn -0.121964 0.268706 0.955470
vn -0.142388 0.733867 0.664202
vn -0.221285 0.313829 0.923333
vn -0.127488 0.719324 0.682876
vn -0.300191 0.461783 0.834651
vn -0.113551 0.724101 0.680283
vn -0.248589 0.598418 0.761642
vn 0.026384 0.721991 0.691399
vn -0.163098 0.633933 0.755995
vn -0.173139 0.976169 0.130830
vn -0.208381 0.967290 0.144662
vn -0.127941 0.962455 0.239399
vn 0.003028 0.919508 0.393059
vn 0.014931 0.842677 0.538213
vn 0.096793 0.770761 0.629729
vn 0.123799 0.754000 0.645103
s 1
g initialShadingGroup cil_bas_gauche cil_bas
f 55/73/67 56/70/68 63/71/69 62/74/70
f 56/70/68 57/67/71 64/68/72 63/71/69
f 57/67/71 58/63/73 65/64/74 64/68/72
f 58/63/73 59/55/75 66/58/76 65/64/74
f 59/55/75 60/56/77 67/57/78 66/58/76
f 60/56/77 61/59/79 68/60/80 67/57/78
f 62/74/70 63/71/69 70/72/81 69/75/82
f 63/71/69 64/68/72 71/69/83 70/72/81
f 64/68/72 65/64/74 72/66/84 71/69/83
f 65/64/74 66/58/76 73/62/85 72/66/84
f 66/58/76 67/57/78 74/61/86 73/62/85
f 67/57/78 68/60/80 75/65/87 74/61/86
s 2
f 76/76/88 83/79/89 84/78/90 77/77/91
f 77/77/91 84/78/90 85/81/92 78/80/93
f 78/80/93 85/81/92 86/83/94 79/82/95
f 79/82/95 86/83/94 87/85/96 80/84/97
f 80/84/97 87/85/96 88/87/98 81/86/99
f 81/86/99 88/87/98 89/89/100 82/88/101
f 83/79/89 90/91/102 91/90/103 84/78/90
f 84/78/90 91/90/103 92/92/104 85/81/92
f 85/81/92 92/92/104 93/93/105 86/83/94
f 86/83/94 93/93/105 94/94/106 87/85/96
f 87/85/96 94/94/106 95/95/107 88/87/98
f 88/87/98 95/95/107 96/96/108 89/89/100
